<svg xmlns="http://www.w3.org/2000/svg" viewBox="70 218 465 500">
  <path d="M306.49,291.29v44.83s22.02,0,22.02,0c2.02,0,3.46.39,4.34,1.16.87.78,1.31,1.8,1.31,3.09,0,1.21-.44,2.22-1.31,3.03-.88.81-2.33,1.21-4.34,1.21h-52.61c-2.02,0-3.46-.4-4.34-1.21-.87-.81-1.31-1.82-1.31-3.03,0-1.28.42-2.31,1.27-3.09.84-.77,2.3-1.16,4.39-1.16h22.02s0-44.83,0-44.83l-37.26-56.35h-5.05c-2.02,0-3.46-.38-4.34-1.16-.88-.77-1.31-1.8-1.31-3.08,0-1.28.44-2.31,1.31-3.09.88-.77,2.33-1.16,4.34-1.16h23.33c2.02,0,3.46.39,4.34,1.16.87.78,1.31,1.8,1.31,3.09,0,1.28-.44,2.31-1.31,3.08-.88.78-2.33,1.16-4.34,1.16h-8.38s31.71,47.77,31.71,47.77l31-47.77h-8.28c-2.09,0-3.57-.38-4.44-1.16-.88-.77-1.31-1.8-1.31-3.08,0-1.28.44-2.31,1.31-3.09.88-.77,2.36-1.16,4.44-1.16h23.22c2.02,0,3.47.39,4.35,1.16.87.78,1.31,1.8,1.31,3.09,0,1.28-.44,2.31-1.31,3.08-.88.78-2.33,1.16-4.35,1.16h-5.04s-36.66,56.35-36.66,56.35ZM306.49,614.22v44.83s22.02,0,22.02,0c2.02,0,3.46.39,4.34,1.16.87.78,1.31,1.8,1.31,3.09,0,1.21-.44,2.22-1.31,3.03-.88.81-2.33,1.21-4.34,1.21h-52.61c-2.02,0-3.46-.4-4.34-1.21-.87-.81-1.31-1.82-1.31-3.03,0-1.28.42-2.31,1.27-3.09.84-.77,2.3-1.16,4.39-1.16h22.02s0-44.83,0-44.83l-37.26-56.35h-5.05c-2.02,0-3.46-.38-4.34-1.16-.88-.77-1.31-1.8-1.31-3.08s.44-2.31,1.31-3.09c.88-.77,2.33-1.16,4.34-1.16h23.33c2.02,0,3.46.39,4.34,1.16.87.78,1.31,1.8,1.31,3.09,0,1.28-.44,2.31-1.31,3.08-.88.78-2.33,1.16-4.34,1.16h-8.38s31.71,47.77,31.71,47.77l31-47.77h-8.28c-2.09,0-3.57-.38-4.44-1.16-.88-.77-1.31-1.8-1.31-3.08,0-1.28.44-2.31,1.31-3.09.88-.77,2.36-1.16,4.44-1.16h23.22c2.02,0,3.47.39,4.35,1.16.87.78,1.31,1.8,1.31,3.09,0,1.28-.44,2.31-1.31,3.08-.88.78-2.33,1.16-4.35,1.16h-5.04s-36.66,56.35-36.66,56.35ZM517.55,344.61h-10.91s-62.51-105.73-62.51-105.73v97.24s15.65,0,15.65,0c2.09,0,3.57.39,4.44,1.16.87.78,1.31,1.8,1.31,3.09,0,1.21-.44,2.22-1.31,3.03-.88.81-2.36,1.21-4.44,1.21h-31.2c-2.09,0-3.57-.4-4.44-1.21-.87-.81-1.31-1.82-1.31-3.03,0-1.28.44-2.31,1.31-3.09.88-.77,2.36-1.16,4.44-1.16h7.07s0-101.18,0-101.18h-11.41c-2.02,0-3.47-.38-4.34-1.16-.88-.77-1.31-1.8-1.31-3.08,0-1.28.44-2.31,1.31-3.09.87-.77,2.32-1.16,4.34-1.16h22.21s62.61,105.93,62.61,105.93v-97.45s-15.65,0-15.65,0c-2.02,0-3.46-.38-4.34-1.16-.88-.77-1.31-1.8-1.31-3.08,0-1.28.42-2.31,1.26-3.09.84-.77,2.31-1.16,4.39-1.16h31.3c2.02,0,3.46.39,4.34,1.16.87.78,1.31,1.8,1.31,3.09,0,1.28-.44,2.31-1.31,3.08-.88.78-2.32,1.16-4.34,1.16h-7.17s0,109.66,0,109.66ZM517.55,667.53h-10.91s-62.51-105.73-62.51-105.73v97.24s15.65,0,15.65,0c2.09,0,3.57.39,4.44,1.16.87.78,1.31,1.8,1.31,3.09,0,1.21-.44,2.22-1.31,3.03-.88.81-2.36,1.21-4.44,1.21h-31.2c-2.09,0-3.57-.4-4.44-1.21-.87-.81-1.31-1.82-1.31-3.03,0-1.28.44-2.31,1.31-3.09.88-.77,2.36-1.16,4.44-1.16h7.07s0-101.18,0-101.18h-11.41c-2.02,0-3.47-.38-4.34-1.16-.88-.77-1.31-1.8-1.31-3.08,0-1.28.44-2.31,1.31-3.09.87-.77,2.32-1.16,4.34-1.16h22.21s62.61,105.93,62.61,105.93v-97.45s-15.65,0-15.65,0c-2.02,0-3.46-.38-4.34-1.16-.88-.77-1.31-1.8-1.31-3.08,0-1.28.42-2.31,1.26-3.09.84-.77,2.31-1.16,4.39-1.16h31.3c2.02,0,3.46.39,4.34,1.16.87.78,1.31,1.8,1.31,3.09,0,1.28-.44,2.31-1.31,3.08-.88.78-2.32,1.16-4.34,1.16h-7.17s0,109.66,0,109.66ZM159.66,234.95v-2.83c0-2.02.39-3.46,1.16-4.34.77-.87,1.8-1.31,3.08-1.31,1.28,0,2.3.44,3.08,1.31.77.88,1.16,2.33,1.16,4.34v21.61c0,2.02-.39,3.47-1.16,4.34-.78.87-1.81,1.31-3.08,1.31-1.21,0-2.21-.4-2.98-1.21-.77-.81-1.2-2.12-1.26-3.94-.34-5.65-3.25-10.74-8.73-15.25-5.49-4.51-12.67-6.77-21.56-6.77-9.36,0-16.8,2.41-22.32,7.22-5.52,4.82-8.28,10.48-8.28,17.02,0,3.37.77,6.42,2.32,9.19,1.55,2.76,3.6,5,6.16,6.71,2.56,1.72,5.45,3.09,8.68,4.14,3.23,1.05,8.28,2.14,15.15,3.28,11.51,1.88,19.45,3.81,23.83,5.76,5.86,2.63,10.28,6.26,13.28,10.91,3,4.65,4.49,10.14,4.49,16.47,0,9.69-3.87,17.96-11.61,24.78-7.75,6.84-18.18,10.25-31.3,10.25-14.75,0-26.52-4.6-35.34-13.83v4.85c0,2.02-.39,3.47-1.16,4.34-.77.87-1.8,1.31-3.08,1.31-1.21,0-2.22-.44-3.03-1.31-.81-.87-1.21-2.33-1.21-4.34v-23.42c0-2.09.39-3.57,1.16-4.44.77-.87,1.8-1.31,3.08-1.31s2.2.4,2.98,1.21c.77.81,1.2,2.12,1.27,3.94.33,6.2,3.65,11.83,9.94,16.92,6.3,5.08,14.76,7.62,25.4,7.62,10.63,0,19.04-2.66,25.2-7.98,6.16-5.32,9.24-11.61,9.24-18.89,0-4.44-1.18-8.39-3.54-11.86-2.35-3.47-5.86-6.21-10.5-8.23-3.24-1.42-9.97-2.99-20.2-4.74-14.07-2.35-24.2-5.95-30.4-10.8-6.19-4.85-9.29-11.75-9.29-20.7,0-8.88,3.55-16.52,10.65-22.92,7.1-6.4,16.48-9.59,28.12-9.59,11.85,0,22.05,3.73,30.6,11.21ZM167.64,667.53h-81.69v-12.32s68.86-96.64,68.86-96.64v-.7h-58.89s0,24.94,0,24.94c0,2.09-.4,3.57-1.21,4.44-.81.87-1.85,1.31-3.13,1.31-1.21,0-2.22-.44-3.03-1.31-.81-.87-1.21-2.35-1.21-4.44v-33.43h75.66v12.02s-68.87,96.73-68.87,96.73v.91h65.03s0-29.58,0-29.58c0-2.08.39-3.56,1.16-4.44.77-.87,1.8-1.31,3.08-1.31,1.28,0,2.31.44,3.08,1.31.77.88,1.16,2.36,1.16,4.44v38.07ZM146.33,500.67l-6.46-10c-6.06,8.89-13.87,13.32-23.43,13.32-8.08,0-15.18-3.2-21.3-9.59-6.13-6.4-9.19-14.2-9.19-23.42,0-7.14,2.07-13.47,6.21-18.99,4.14-5.51,9.85-9.35,17.12-11.51-4.98-8.02-7.96-13.28-8.94-15.81-.98-2.52-1.47-5.13-1.47-7.82,0-6.67,2.53-12.51,7.58-17.53,5.05-5.01,11.11-7.52,18.18-7.52,2.29,0,4.58.34,6.86,1.01,2.29.68,4.58,1.72,6.87,3.13,2.89-1.48,4.67-2.22,5.35-2.22,1.14,0,2.14.42,2.98,1.26.84.84,1.26,1.88,1.26,3.09,0,.81-.24,1.55-.71,2.22-.47.68-1.42,1.38-2.83,2.12l-6.56,3.54c-2.09-1.88-4.22-3.28-6.41-4.19-2.18-.91-4.43-1.37-6.71-1.37-4.65,0-8.7,1.73-12.17,5.16-3.47,3.43-5.2,7.27-5.2,11.51,0,4.38,3.03,11.38,9.09,21l23.43,37.26c4.1-7.74,7.34-16.69,9.69-26.87h8.28c2.02,0,3.47.41,4.35,1.22.87.81,1.31,1.82,1.31,3.03,0,.87-.25,1.68-.76,2.42-.51.74-1.09,1.25-1.77,1.52-.68.27-2.32.4-4.95.4-3.23,11.37-6.93,20.2-11.11,26.45l5.75,8.68h7.17c2.02,0,3.47.39,4.35,1.16.87.78,1.31,1.8,1.31,3.09s-.44,2.22-1.31,3.03c-.88.81-2.33,1.21-4.35,1.21h-11.51ZM112.9,447.96c-5.65,1.34-10.15,4.09-13.48,8.22-3.33,4.14-5,9.08-5,14.8,0,6.8,2.24,12.59,6.71,17.37,4.48,4.78,9.51,7.17,15.1,7.17,7.54,0,13.77-4.25,18.68-12.72l-22.01-34.84Z"/>
</svg>
